<?xml version="1.0" encoding="UTF-8"?>
<svg version="1.1" xmlns="http://www.w3.org/2000/svg" width="320" height="78">
<path d="M0 0 C105.6 0 211.2 0 320 0 C320 25.74 320 51.48 320 78 C214.4 78 108.8 78 0 78 C0 52.26 0 26.52 0 0 Z " fill="#FEFEFC" transform="translate(0,0)"/>
<path d="M0 0 C0.66 0 1.32 0 2 0 C7 11.36363636 7 11.36363636 7 18 C13.93 18 20.86 18 28 18 C23 23 23 23 20 25 C19.34 25 18.68 25 18 25 C18 25.66 18 26.32 18 27 C15.5 28.625 15.5 28.625 13 30 C13.28875 31.27875 13.5775 32.5575 13.875 33.875 C14.99382464 38.90171927 16.0083596 43.94685368 17 49 C13.42705968 47.67997942 10.36046508 46.10478612 7.1875 44 C6.39730469 43.484375 5.60710937 42.96875 4.79296875 42.4375 C4.20128906 41.963125 3.60960937 41.48875 3 41 C3 40.34 3 39.68 3 39 C-1.69033069 41.16476801 -5.81341684 43.8338679 -10.046875 46.79296875 C-12 48 -12 48 -14 48 C-13.7834375 46.0509375 -13.7834375 46.0509375 -13.5625 44.0625 C-13.44648438 42.82886719 -13.44648438 42.82886719 -13.328125 41.5703125 C-13 39 -13 39 -12.359375 36.6796875 C-11.74476348 34.15978025 -11.46362556 32.55115908 -12 30 C-14.95027295 26.74182381 -18.32373638 24.38043778 -22 22 C-22.99 21.34 -23.98 20.68 -25 20 C-25 19.34 -25 18.68 -25 18 C-18.4 18 -11.8 18 -5 18 C-4.34 15.36 -3.68 12.72 -3 10 C-2.47290583 8.16242398 -1.93362783 6.32823654 -1.375 4.5 C-1.11460937 3.6440625 -0.85421875 2.788125 -0.5859375 1.90625 C-0.39257812 1.2771875 -0.19921875 0.648125 0 0 Z " fill="#DEDBD5" transform="translate(220,14)"/>
<path d="M0 0 C0.66 0 1.32 0 2 0 C3.00419637 2.4566947 4.00350501 4.91518353 5 7.375 C5.28617188 8.07367188 5.57234375 8.77234375 5.8671875 9.4921875 C8 14.7734375 8 14.7734375 8 17 C14.27 17 20.54 17 27 17 C27 17.66 27 18.32 27 19 C25.28166524 20.40034072 23.49870901 21.72205227 21.6875 23 C20.20830078 24.051875 20.20830078 24.051875 18.69921875 25.125 C16.81249433 26.43560452 14.91143763 27.72570825 13 29 C13.87285897 33.17858016 14.75062931 37.26574187 16.125 41.3125 C17 44 17 44 17 48 C13.12843231 46.18273353 9.79267187 43.8125266 6.31640625 41.33984375 C3.79255756 39.88001222 1.90324468 39.23797088 -1 39 C-3.69433317 40.87197454 -3.69433317 40.87197454 -6 43 C-6.66 43 -7.32 43 -8 43 C-8 43.66 -8 44.32 -8 45 C-10.31 46.32 -12.62 47.64 -15 49 C-14.55325707 45.35159938 -13.98969446 41.96544613 -12.9375 38.4375 C-11.98554461 34.94699689 -11.57763069 32.58554819 -12 29 C-14.04783746 26.6216461 -14.04783746 26.6216461 -16.8125 24.75 C-17.70582031 24.08484375 -18.59914063 23.4196875 -19.51953125 22.734375 C-21.33120191 21.46763205 -23.16066286 20.22622476 -25 19 C-25 18.34 -25 17.68 -25 17 C-18.4 17 -11.8 17 -5 17 C-4.67 15.02 -4.34 13.04 -4 11 C-3.35837343 9.02616084 -2.67144544 7.06640407 -1.9375 5.125 C-1.57527344 4.15820312 -1.21304688 3.19140625 -0.83984375 2.1953125 C-0.56269531 1.47085937 -0.28554688 0.74640625 0 0 Z " fill="#F5BA37" transform="translate(38,15)"/>
<path d="M0 0 C0.99 0.33 1.98 0.66 3 1 C4.16796875 4.0546875 4.16796875 4.0546875 5.1875 7.875 C5.53167969 9.13054688 5.87585938 10.38609375 6.23046875 11.6796875 C7 15 7 15 7 18 C13.93 18 20.86 18 28 18 C27.34 18.99 26.68 19.98 26 21 C25.34 21 24.68 21 24 21 C24 21.66 24 22.32 24 23 C22.68 23.33 21.36 23.66 20 24 C20 24.66 20 25.32 20 26 C17 28 17 28 14 28 C14.43632909 34.88940671 15.08389845 41.35751464 17 48 C13.21213403 47.4739075 10.82847776 46.61896089 8 44 C8 43.34 8 42.68 8 42 C6.02 41.34 4.04 40.68 2 40 C2 39.34 2 38.68 2 38 C1.505 38.5775 1.01 39.155 0.5 39.75 C-2.22107421 42.19896679 -4.81339509 43.44211859 -8.09375 44.984375 C-10.51692099 46.27540872 -12.22124005 47.92478006 -14 50 C-15.20562578 46.38312265 -14.38256859 45.42328882 -12.8359375 42.1171875 C-11.30091125 38.22941074 -10.70228039 34.10627476 -10 30 C-10.99 29.67 -11.98 29.34 -13 29 C-13.33 28.34 -13.66 27.68 -14 27 C-15.72838082 25.98906028 -17.45906373 24.98137728 -19.2109375 24.01171875 C-21.30098126 22.82979444 -23.1956328 21.58784314 -25 20 C-25 19.34 -25 18.68 -25 18 C-18.4 18 -11.8 18 -5 18 C-4.67 15.69 -4.34 13.38 -4 11 C-3.04346365 8.6485148 -2.04718798 6.31254012 -1 4 C-0.62691369 2.67723944 -0.26953585 1.34767923 0 0 Z " fill="#DCDCDA" transform="translate(282,14)"/>
<path d="M0 0 C0.99 0.33 1.98 0.66 3 1 C4.04409043 3.32640994 4.89690418 5.52749642 5.6875 7.9375 C5.91244141 8.58396484 6.13738281 9.23042969 6.36914062 9.89648438 C8 14.67009403 8 14.67009403 8 17 C14.27 17 20.54 17 27 17 C27 17.66 27 18.32 27 19 C26.21625 19.2475 25.4325 19.495 24.625 19.75 C21.53120098 21.22323763 21.43445464 22.04143731 20 25 C19.154375 25.474375 18.30875 25.94875 17.4375 26.4375 C14.85615089 27.77052641 14.85615089 27.77052641 14.0625 30.1875 C13.99348945 33.29297478 14.6146578 35.94972974 15.453125 38.9296875 C16.24557553 41.92967879 16.61543436 44.92347491 17 48 C14.50638429 46.79618552 12.31856917 45.54571278 10 44 C10 43.34 10 42.68 10 42 C9.21625 41.87625 8.4325 41.7525 7.625 41.625 C5 41 5 41 3 39 C-1.22811795 39.26987987 -3.22375118 39.87672007 -6 43 C-11.6 47 -11.6 47 -14 47 C-13 41 -12 35 -11 29 C-11.9384375 28.30132812 -12.876875 27.60265625 -13.84375 26.8828125 C-15.0627504 25.96387374 -16.28148685 25.04458477 -17.5 24.125 C-18.12003906 23.66480469 -18.74007812 23.20460938 -19.37890625 22.73046875 C-20.95635892 21.53437826 -22.48261798 20.27143274 -24 19 C-24 18.34 -24 17.68 -24 17 C-17.73 17 -11.46 17 -5 17 C-4.67 15.02 -4.34 13.04 -4 11 C-3.35837343 9.02616084 -2.67144544 7.06640407 -1.9375 5.125 C-1.57527344 4.15820312 -1.21304688 3.19140625 -0.83984375 2.1953125 C-0.56269531 1.47085937 -0.28554687 0.74640625 0 0 Z " fill="#F5BB3C" transform="translate(98,15)"/>
<path d="M0 0 C2.91019311 2.46824401 3.93540196 4.93080098 5.1875 8.5 C5.53167969 9.4590625 5.87585938 10.418125 6.23046875 11.40625 C7 14 7 14 7 17 C13.6 17 20.2 17 27 17 C25.84458709 20.46623873 25.28681493 20.69646889 22.25 22.4375 C18.93958612 24.402314 15.94948234 26.51137428 13 29 C13.51529465 32.43529769 14.17650736 35.76953853 15.0625 39.125 C16 43 16 43 16 47 C11.47082429 45.73604399 8.55236071 44.05897727 5 41 C4.34 40.67 3.68 40.34 3 40 C3 39.34 3 38.68 3 38 C-2.14294059 39.92860272 -6.02642126 42.34157002 -10.30078125 45.79296875 C-12 47 -12 47 -14 47 C-13.48914188 40.56318772 -12.27057103 35.04057576 -10 29 C-11.0209375 28.690625 -11.0209375 28.690625 -12.0625 28.375 C-15.37547866 26.82424403 -17.6578015 24.87529276 -20.3515625 22.4375 C-22.14959934 20.80725313 -22.14959934 20.80725313 -25 19 C-25 18.34 -25 17.68 -25 17 C-18.4 17 -11.8 17 -5 17 C-4.67 14.69 -4.34 12.38 -4 10 C-3.549754 8.36051729 -3.05595713 6.73171611 -2.5 5.125 C-2.2421875 4.36445313 -1.984375 3.60390625 -1.71875 2.8203125 C-1 1 -1 1 0 0 Z " fill="#F5BB3B" transform="translate(160,15)"/>
<path d="M0 0 C3.96997583 3.96997583 2.82852577 11.60666154 2.9375 17.0625 C2.95278748 17.77697296 2.96807495 18.49144592 2.98382568 19.22756958 C3.13174227 32.75886371 3.13174227 32.75886371 -0.83203125 37.0546875 C-4.35334841 39.7902768 -8.45901956 42 -13 42 C-12.7834375 40.0509375 -12.7834375 40.0509375 -12.5625 38.0625 C-12.44648438 36.82886719 -12.44648438 36.82886719 -12.328125 35.5703125 C-12 33 -12 33 -11.359375 30.6796875 C-10.74476348 28.15978025 -10.46362556 26.55115908 -11 24 C-13.95027295 20.74182381 -17.32373638 18.38043778 -21 16 C-21.99 15.34 -22.98 14.68 -24 14 C-24 13.34 -24 12.68 -24 12 C-17.4 12 -10.8 12 -4 12 C-3.34 9.36 -2.68 6.72 -2 4 C-0.875 1.5 -0.875 1.5 0 0 Z " fill="#EEBC39" transform="translate(219,20)"/>
<path d="M0 0 C0.66 0 1.32 0 2 0 C3.00419637 2.4566947 4.00350501 4.91518353 5 7.375 C5.28617188 8.07367188 5.57234375 8.77234375 5.8671875 9.4921875 C8 14.7734375 8 14.7734375 8 17 C14.27 17 20.54 17 27 17 C27 17.66 27 18.32 27 19 C25.30508386 20.40268922 23.542165 21.72390346 21.75 23 C20.77546875 23.70125 19.8009375 24.4025 18.796875 25.125 C16.56397928 26.62191333 14.43735928 27.88577861 12 29 C11.34 27.68 10.68 26.36 10 25 C12.31 24.67 14.62 24.34 17 24 C16.67 22.35 16.34 20.7 16 19 C14.35 19.66 12.7 20.32 11 21 C10.51789062 20.566875 10.03578125 20.13375 9.5390625 19.6875 C8.90742187 19.130625 8.27578125 18.57375 7.625 18 C6.99851562 17.443125 6.37203125 16.88625 5.7265625 16.3125 C4.09610167 14.79827513 4.09610167 14.79827513 2 15 C2 15.66 2 16.32 2 17 C0.35 16.67 -1.3 16.34 -3 16 C-3.33 16.66 -3.66 17.32 -4 18 C-7.06074992 18.56797421 -10.12171617 18.89563924 -13.21484375 19.2421875 C-16.13336255 19.70845646 -16.13336255 19.70845646 -17.37890625 22.0703125 C-17.58386719 22.70710938 -17.78882813 23.34390625 -18 24 C-19.17219543 23.21654285 -20.33763668 22.42297164 -21.5 21.625 C-22.1496875 21.18414062 -22.799375 20.74328125 -23.46875 20.2890625 C-23.9740625 19.86367188 -24.479375 19.43828125 -25 19 C-25 18.34 -25 17.68 -25 17 C-18.4 17 -11.8 17 -5 17 C-4.67 15.02 -4.34 13.04 -4 11 C-3.35837343 9.02616084 -2.67144544 7.06640407 -1.9375 5.125 C-1.57527344 4.15820312 -1.21304688 3.19140625 -0.83984375 2.1953125 C-0.56269531 1.47085937 -0.28554688 0.74640625 0 0 Z " fill="#F3BB40" transform="translate(38,15)"/>
<path d="M0 0 C1.65 0 3.3 0 5 0 C3 3 3 3 0.4375 4.375 C-2.137705 5.77125037 -2.137705 5.77125037 -2.9375 8.1875 C-3.00651055 11.29297478 -2.3853422 13.94972974 -1.546875 16.9296875 C-0.75442447 19.92967879 -0.38456564 22.92347491 0 26 C-2.49361571 24.79618552 -4.68143083 23.54571278 -7 22 C-7 21.34 -7 20.68 -7 20 C-7.78375 19.87625 -8.5675 19.7525 -9.375 19.625 C-12 19 -12 19 -14 17 C-17.06991681 17.16442277 -17.06991681 17.16442277 -20 18 C-20.33 18.66 -20.66 19.32 -21 20 C-21.66 20 -22.32 20 -23 20 C-22.67 18.68 -22.34 17.36 -22 16 C-21.34 16 -20.68 16 -20 16 C-20.33 14.35 -20.66 12.7 -21 11 C-20.34 11 -19.68 11 -19 11 C-19 11.99 -19 12.98 -19 14 C-16.36 14.33 -13.72 14.66 -11 15 C-11 14.34 -11 13.68 -11 13 C-9.68 13 -8.36 13 -7 13 C-7 10.36 -7 7.72 -7 5 C-6.01 4.67 -5.02 4.34 -4 4 C-3.67 3.34 -3.34 2.68 -3 2 C-2.01 2 -1.02 2 0 2 C0 1.34 0 0.68 0 0 Z " fill="#F2C053" transform="translate(115,37)"/>
<path d="M0 0 C0.33 0 0.66 0 1 0 C1.19491883 4.19075475 0.93330576 7.24079436 -1 11 C-3.56893838 12.28446919 -5.76576337 12.32977144 -8.625 12.5625 C-9.62789062 12.64628906 -10.63078125 12.73007812 -11.6640625 12.81640625 C-12.43492187 12.87699219 -13.20578125 12.93757813 -14 13 C-13.175 13.61875 -12.35 14.2375 -11.5 14.875 C-10.675 15.57625 -9.85 16.2775 -9 17 C-9 17.66 -9 18.32 -9 19 C-8.01 19 -7.02 19 -6 19 C-4.77809032 24.55413491 -5.22811824 27.0959015 -8 32 C-8.69907414 34.73572585 -8.69907414 34.73572585 -9 37 C-8.34 37 -7.68 37 -7 37 C-7 36.34 -7 35.68 -7 35 C-6.34 35 -5.68 35 -5 35 C-5 34.34 -5 33.68 -5 33 C-3.515 33.495 -3.515 33.495 -2 34 C-4.77280706 37.08089673 -7.06326356 38.68775452 -11 40 C-10.48914188 33.56318772 -9.27057103 28.04057576 -7 22 C-8.0209375 21.690625 -8.0209375 21.690625 -9.0625 21.375 C-12.37547866 19.82424403 -14.6578015 17.87529276 -17.3515625 15.4375 C-19.14959934 13.80725313 -19.14959934 13.80725313 -22 12 C-22 11.34 -22 10.68 -22 10 C-15.4 10 -8.8 10 -2 10 C-1.67 7.69 -1.34 5.38 -1 3 C-0.67 2.01 -0.34 1.02 0 0 Z " fill="#EEC159" transform="translate(157,22)"/>
<path d="M0 0 C0.99 0.33 1.98 0.66 3 1 C3.33 2.98 3.66 4.96 4 7 C3.67 7 3.34 7 3 7 C2.67 8.65 2.34 10.3 2 12 C1.34 12 0.68 12 0 12 C-0.33 12.99 -0.66 13.98 -1 15 C-1.66 15 -2.32 15 -3 15 C-3.33 15.99 -3.66 16.98 -4 18 C-5.98 18 -7.96 18 -10 18 C-10 18.66 -10 19.32 -10 20 C-11.65 20 -13.3 20 -15 20 C-14.65555119 22.47266765 -14.65555119 22.47266765 -14 25 C-13.34 25.33 -12.68 25.66 -12 26 C-15.76603821 26 -16.77142649 24.92592757 -19.6875 22.625 C-20.89986328 21.68527344 -20.89986328 21.68527344 -22.13671875 20.7265625 C-22.75160156 20.15679687 -23.36648437 19.58703125 -24 19 C-24 18.34 -24 17.68 -24 17 C-17.73 17 -11.46 17 -5 17 C-4.67 15.02 -4.34 13.04 -4 11 C-3.35837343 9.02616084 -2.67144544 7.06640407 -1.9375 5.125 C-1.57527344 4.15820312 -1.21304688 3.19140625 -0.83984375 2.1953125 C-0.56269531 1.47085937 -0.28554687 0.74640625 0 0 Z " fill="#F0C363" transform="translate(98,15)"/>
<path d="M0 0 C1.65 0 3.3 0 5 0 C5.20496094 0.63808594 5.40992188 1.27617188 5.62109375 1.93359375 C5.89050781 2.75988281 6.15992188 3.58617187 6.4375 4.4375 C6.70433594 5.26121094 6.97117188 6.08492187 7.24609375 6.93359375 C7.82155494 8.96219588 7.82155494 8.96219588 9 10 C9.33 10.99 9.66 11.98 10 13 C10.99 13 11.98 13 13 13 C11.6015209 16.4087928 10.14993067 17.87393835 7 19.75 C6.29875 20.17796875 5.5975 20.6059375 4.875 21.046875 C3 22 3 22 1 22 C1.144375 20.700625 1.28875 19.40125 1.4375 18.0625 C1.52386719 17.24523437 1.61023438 16.42796875 1.69921875 15.5859375 C1.89541872 13.89912733 2.12571558 12.21583354 2.39453125 10.5390625 C3.20514879 5.80807687 3.20514879 5.80807687 1.5625 1.4375 C1.046875 0.963125 0.53125 0.48875 0 0 Z " fill="#EFBC4B" transform="translate(205,40)"/>
<path d="M0 0 C2.875 0.6875 2.875 0.6875 6 2 C7.375 4.625 7.375 4.625 8 7 C8.66 7 9.32 7 10 7 C10.33 10.96 10.66 14.92 11 19 C10.01 19 9.02 19 8 19 C7.67 18.34 7.34 17.68 7 17 C6.34 17.33 5.68 17.66 5 18 C4.855625 16.7625 4.71125 15.525 4.5625 14.25 C4.21311498 11.43495501 3.79620634 8.7298503 3 6 C1.35 6 -0.3 6 -2 6 C-2.66 4.68 -3.32 3.36 -4 2 C-1.525 2.495 -1.525 2.495 1 3 C0.67 2.01 0.34 1.02 0 0 Z " fill="#F7B936" transform="translate(207,34)"/>
<path d="M0 0 C1.32 0.66 2.64 1.32 4 2 C4 4.31 4 6.62 4 9 C4.5775 9.12375 5.155 9.2475 5.75 9.375 C8.02335767 10.00648824 9.9253529 10.88858191 12 12 C7.25 16 7.25 16 5 16 C5 16.66 5 17.32 5 18 C2.69 19.32 0.38 20.64 -2 22 C-1.55325707 18.35159938 -0.98969446 14.96544613 0.0625 11.4375 C1.15175873 7.44355134 1.90448651 3.80897302 0 0 Z " fill="#EFC85F" transform="translate(25,42)"/>
<path d="M0 0 C0.33 0.99 0.66 1.98 1 3 C0.34 3 -0.32 3 -1 3 C-1 3.99 -1 4.98 -1 6 C-3.97 5.505 -3.97 5.505 -7 5 C-7 5.66 -7 6.32 -7 7 C-8.65 6.67 -10.3 6.34 -12 6 C-11.34 7.32 -10.68 8.64 -10 10 C-13.58273331 8.34643078 -16.80973467 6.32019297 -20 4 C-20 3.34 -20 2.68 -20 2 C-13.4 2 -6.8 2 0 2 C0 1.34 0 0.68 0 0 Z " fill="#F2BE4A" transform="translate(215,30)"/>
<path d="M0 0 C2.475 0.495 2.475 0.495 5 1 C5.50588147 2.91512272 6.00448391 4.83216922 6.5 6.75 C6.7784375 7.81734375 7.056875 8.8846875 7.34375 9.984375 C8 13 8 13 8 17 C8.59538574 16.98428955 9.19077148 16.9685791 9.80419922 16.95239258 C12.49437003 16.89014199 15.18438957 16.85104217 17.875 16.8125 C18.81214844 16.78736328 19.74929687 16.76222656 20.71484375 16.73632812 C21.61074219 16.72666016 22.50664062 16.71699219 23.4296875 16.70703125 C24.25710449 16.6913208 25.08452148 16.67561035 25.93701172 16.65942383 C26.61779785 16.77181396 27.29858398 16.8842041 28 17 C28.66 17.99 29.32 18.98 30 20 C21.85462555 25.49339207 21.85462555 25.49339207 19 27 C18.34 26.67 17.68 26.34 17 26 C19.90507321 23.57910566 22.63147043 21.68426478 26 20 C26.33 19.34 26.66 18.68 27 18 C20.4 18 13.8 18 7 18 C4.0625 10.125 4.0625 10.125 3.14086914 7.64892578 C1.70518706 3.76717201 1.70518706 3.76717201 0 0 Z " fill="#FEF7D4" transform="translate(160,14)"/>
<path d="M0 0 C5.61 0 11.22 0 17 0 C13.82270675 3.17729325 11.21605594 5.74084058 7.6875 8.3125 C6.99011719 8.82425781 6.29273438 9.33601563 5.57421875 9.86328125 C5.05472656 10.23839844 4.53523438 10.61351562 4 11 C3.01 9.68 2.02 8.36 1 7 C4.465 6.505 4.465 6.505 8 6 C7.67 4.35 7.34 2.7 7 1 C5.35 1.66 3.7 2.32 2 3 C1.34 2.01 0.68 1.02 0 0 Z " fill="#F3BB49" transform="translate(47,33)"/>
<path d="M0 0 C0.66 0 1.32 0 2 0 C3.00419637 2.4566947 4.00350501 4.91518353 5 7.375 C5.42925781 8.42300781 5.42925781 8.42300781 5.8671875 9.4921875 C8 14.7734375 8 14.7734375 8 17 C14.27 17 20.54 17 27 17 C26.67 17.66 26.34 18.32 26 19 C22.91560757 18.91890252 19.83316088 18.80608311 16.75 18.6875 C15.87730469 18.66494141 15.00460938 18.64238281 14.10546875 18.61914062 C7.70045573 18.35022786 7.70045573 18.35022786 4.4375 16.71875 C1.92739112 13.71753286 2.25073607 10.82372512 2 7 C-0.0745356 6.8509288 -0.0745356 6.8509288 -2 8 C-1.34 5.36 -0.68 2.72 0 0 Z " fill="#F2C664" transform="translate(38,15)"/>
<path d="M0 0 C2.2792203 1.78373763 2.9813064 2.93672936 3.8125 5.75 C4.03226627 9.55928204 3.22126982 12.40802993 2 16 C0.0234375 14.8125 0.0234375 14.8125 -2 13 C-2.4609375 10.625 -2.4609375 10.625 -2.375 8 C-2.36210937 7.13375 -2.34921875 6.2675 -2.3359375 5.375 C-2 3 -2 3 0 0 Z " fill="#F8BA2F" transform="translate(160,15)"/>
<path d="M0 0 C0.99 0.33 1.98 0.66 3 1 C1.989375 1.70125 0.97875 2.4025 -0.0625 3.125 C-1.73613469 4.45554544 -1.73613469 4.45554544 -3 6 C-3.14031566 8.92202417 -3.14031566 8.92202417 -2 12 C-0.92015778 16.07502501 0 19.74349834 0 24 C-5.75 22.375 -5.75 22.375 -8 19 C-6.68 19 -5.36 19 -4 19 C-4.08378906 17.94039062 -4.16757813 16.88078125 -4.25390625 15.7890625 C-4.35706832 14.40106375 -4.45991663 13.01304165 -4.5625 11.625 C-4.61857422 10.92632812 -4.67464844 10.22765625 -4.73242188 9.5078125 C-5.11328125 4.2265625 -5.11328125 4.2265625 -4 2 C-2.68 2 -1.36 2 0 2 C0 1.34 0 0.68 0 0 Z " fill="#EDC464" transform="translate(176,38)"/>
<path d="M0 0 C1.65 0.33 3.3 0.66 5 1 C4.67 4.63 4.34 8.26 4 12 C3.34 12 2.68 12 2 12 C2 12.99 2 13.98 2 15 C3.65 15 5.3 15 7 15 C4.4041044 17.87402727 2.78630702 19.24432948 -1 20 C1 8 1 8 1.69140625 4.7265625 C1.84416016 3.37691406 1.84416016 3.37691406 2 2 C1.34 1.34 0.68 0.68 0 0 Z " fill="#ECC564" transform="translate(85,42)"/>
<path d="M0 0 C1.65 0 3.3 0 5 0 C8.25601751 8.03501094 8.25601751 8.03501094 7.1875 12.0625 C6.5996875 13.0215625 6.5996875 13.0215625 6 14 C5.01 14 4.02 14 3 14 C2.67 15.98 2.34 17.96 2 20 C0.51353552 16.13519235 1.70732324 13.80199047 3 10 C3.35892201 6.41077991 3.43927505 4.69551884 1.5 1.625 C1.005 1.08875 0.51 0.5525 0 0 Z " fill="#EDCA6E" transform="translate(205,40)"/>
<path d="M0 0 C6.27 0 12.54 0 19 0 C16.67051464 2.32948536 16.14278968 2.22479314 13 2.375 C10.88219759 2.53232795 10.88219759 2.53232795 9 3 C7.4100567 4.92064793 7.4100567 4.92064793 7 7 C5.82780457 6.21654285 4.66236332 5.42297164 3.5 4.625 C2.8503125 4.18414062 2.200625 3.74328125 1.53125 3.2890625 C1.0259375 2.86367188 0.520625 2.43828125 0 2 C0 1.34 0 0.68 0 0 Z " fill="#EFC765" transform="translate(13,32)"/>
<path d="M0 0 C0.66 0 1.32 0 2 0 C2.33 0.99 2.66 1.98 3 3 C3.66 3 4.32 3 5 3 C5.66 4.65 6.32 6.3 7 8 C12.28 8.33 17.56 8.66 23 9 C23.33 9.99 23.66 10.98 24 12 C23.34 12 22.68 12 22 12 C22 11.34 22 10.68 22 10 C15.73 10 9.46 10 3 10 C0 2 0 2 0 0 Z " fill="#FDFBE2" transform="translate(103,22)"/>
<path d="M0 0 C2.31 0.33 4.62 0.66 7 1 C7 1.66 7 2.32 7 3 C7.94875 3.309375 8.8975 3.61875 9.875 3.9375 C13 5 13 5 15 6 C15 4.35 15 2.7 15 1 C17.29633824 4.44450737 17.54016485 6.93812283 18 11 C14.15465381 9.18632198 10.79862645 6.85991406 7.31640625 4.4375 C4.94681156 2.96699267 2.61352118 1.95875204 0 1 C0 0.67 0 0.34 0 0 Z " fill="#EBC66A" transform="translate(37,52)"/>
<path d="M0 0 C0.99 0.33 1.98 0.66 3 1 C3.33 2.98 3.66 4.96 4 7 C3.67 7 3.34 7 3 7 C2.67 8.65 2.34 10.3 2 12 C1.34 12 0.68 12 0 12 C-0.33 12.99 -0.66 13.98 -1 15 C-1.66 15 -2.32 15 -3 15 C-2.69052329 13.06201479 -2.37731166 11.12462574 -2.0625 9.1875 C-1.88847656 8.10855469 -1.71445313 7.02960937 -1.53515625 5.91796875 C-1 3 -1 3 0 0 Z " fill="#F7B844" transform="translate(98,15)"/>
<path d="M0 0 C2 2 2 2 2.22705078 5.07275391 C2.21134033 7.00513916 2.21134033 7.00513916 2.1953125 8.9765625 C2.1924826 9.66181 2.18965271 10.3470575 2.18673706 11.05307007 C2.17553281 13.24389027 2.15042859 15.43430316 2.125 17.625 C2.11497048 19.1093691 2.10584458 20.5937446 2.09765625 22.078125 C2.07559294 25.71888261 2.04106176 29.35940156 2 33 C1.67 33 1.34 33 1 33 C0.67 23.76 0.34 14.52 0 5 C-0.66 6.65 -1.32 8.3 -2 10 C-2.6875 8.375 -2.6875 8.375 -3 6 C-1.5625 2.75 -1.5625 2.75 0 0 Z " fill="#E9C27F" transform="translate(219,20)"/>
<path d="M0 0 C0.99 0.33 1.98 0.66 3 1 C2.35155914 5.19283118 1.48783354 9.26499921 0.4375 13.375 C0.16808594 14.43460938 -0.10132813 15.49421875 -0.37890625 16.5859375 C-0.58386719 17.38257812 -0.78882813 18.17921875 -1 19 C-0.34 19 0.32 19 1 19 C1 19.66 1 20.32 1 21 C-0.32 21 -1.64 21 -3 21 C-3.18334023 16.32482415 -2.73272093 13.28083995 -1 9 C-0.53962539 6.01009455 -0.249542 3.01420463 0 0 Z " fill="#FCF0C8" transform="translate(147,43)"/>
<path d="M0 0 C1.65 0.99 3.3 1.98 5 3 C4.35155914 7.19283118 3.48783354 11.26499921 2.4375 15.375 C2.16808594 16.43460938 1.89867188 17.49421875 1.62109375 18.5859375 C1.41613281 19.38257812 1.21117188 20.17921875 1 21 C2.32 20.67 3.64 20.34 5 20 C4.67 20.66 4.34 21.32 4 22 C1.9375 22.625 1.9375 22.625 0 23 C0.41044485 16.42208127 0.86608597 10.25948114 3 4 C2.01 3.67 1.02 3.34 0 3 C0 2.01 0 1.02 0 0 Z " fill="#FCF3C9" transform="translate(83,41)"/>
<path d="M0 0 C3.13205431 1.48360467 5.07647981 3.56379179 7.375 6.125 C6.055 6.125 4.735 6.125 3.375 6.125 C3.045 5.465 2.715 4.805 2.375 4.125 C-1.34099191 3.92413557 -2.39708445 3.9730563 -5.625 6.125 C-7.8125 5.75 -7.8125 5.75 -9.625 5.125 C-3.68197309 0.17533205 -3.68197309 0.17533205 0 0 Z " fill="#FEF7D7" transform="translate(39.625,52.875)"/>
<path d="M0 0 C0.33 0 0.66 0 1 0 C1.21222719 4.56288469 0.77997029 6.55007426 -1 11 C-6.94 11 -12.88 11 -19 11 C-19 11.66 -19 12.32 -19 13 C-19.99 12.67 -20.98 12.34 -22 12 C-22 11.34 -22 10.68 -22 10 C-15.4 10 -8.8 10 -2 10 C-1.67 7.69 -1.34 5.38 -1 3 C-0.67 2.01 -0.34 1.02 0 0 Z " fill="#F0CA74" transform="translate(157,22)"/>
<path d="M0 0 C0.66 0 1.32 0 2 0 C2 2.64 2 5.28 2 8 C-0.64 8 -3.28 8 -6 8 C-6.33 6.02 -6.66 4.04 -7 2 C-3.04 3.98 -3.04 3.98 1 6 C0.67 4.02 0.34 2.04 0 0 Z " fill="#F9F3D5" transform="translate(175,56)"/>
<path d="M0 0 C0.33 0.99 0.66 1.98 1 3 C-4.61 3 -10.22 3 -16 3 C-16.33 3.99 -16.66 4.98 -17 6 C-17.99 5.34 -18.98 4.68 -20 4 C-20 3.34 -20 2.68 -20 2 C-13.4 2 -6.8 2 0 2 C0 1.34 0 0.68 0 0 Z " fill="#EECB7C" transform="translate(215,30)"/>
<path d="M0 0 C0 0.99 0 1.98 0 3 C-2.5 4.6875 -2.5 4.6875 -5 6 C-4.01 7.485 -4.01 7.485 -3 9 C-5.96175123 8.38722388 -7.38058783 7.74627478 -10 6 C-8.71283353 4.99421411 -7.42011342 3.99553202 -6.125 3 C-5.40570313 2.443125 -4.68640625 1.88625 -3.9453125 1.3125 C-2 0 -2 0 0 0 Z " fill="#FCF4D5" transform="translate(158,55)"/>
<path d="M0 0 C0.598125 0.309375 1.19625 0.61875 1.8125 0.9375 C4.08956772 2.10209704 4.08956772 2.10209704 7 3 C2.25 7 2.25 7 0 7 C0 7.66 0 8.32 0 9 C-0.66 8.67 -1.32 8.34 -2 8 C-1.34 5.36 -0.68 2.72 0 0 Z " fill="#F2BE58" transform="translate(30,51)"/>
<path d="M0 0 C0.66 0 1.32 0 2 0 C2 0.99 2 1.98 2 3 C3.65 3 5.3 3 7 3 C4.47211993 5.79872437 2.79588866 7.45773019 -1 8 C-0.67 5.36 -0.34 2.72 0 0 Z " fill="#EEBF5B" transform="translate(85,54)"/>
<path d="M0 0 C2.09749995 2.35968744 2.96905704 3.54616994 3.1875 6.75 C3.125625 7.4925 3.06375 8.235 3 9 C0.11562221 7.70700306 -1.87219421 6.34058637 -4 4 C-2.68 4 -1.36 4 0 4 C0 2.68 0 1.36 0 0 Z " fill="#E6C868" transform="translate(112,54)"/>
<path d="M0 0 C0.66 0 1.32 0 2 0 C2 0.99 2 1.98 2 3 C3.65 3.33 5.3 3.66 7 4 C6.401875 4.268125 5.80375 4.53625 5.1875 4.8125 C2.95672092 5.8893979 2.95672092 5.8893979 1.375 7.625 C0.92125 8.07875 0.4675 8.5325 0 9 C-0.66 9 -1.32 9 -2 9 C-1.67 7.68 -1.34 6.36 -1 5 C-0.34 5 0.32 5 1 5 C0.67 3.35 0.34 1.7 0 0 Z " fill="#F0BE49" transform="translate(94,48)"/>
<path d="M0 0 C0.99 0.495 0.99 0.495 2 1 C2.6328125 3.06640625 2.6328125 3.06640625 3.125 5.5625 C3.29257813 6.38878906 3.46015625 7.21507812 3.6328125 8.06640625 C3.75398437 8.70449219 3.87515625 9.34257812 4 10 C2.68 10.33 1.36 10.66 0 11 C0 7.37 0 3.74 0 0 Z " fill="#E1E2E1" transform="translate(223,20)"/>
<path d="M0 0 C0.66 1.65 1.32 3.3 2 5 C0.68 4.67 -0.64 4.34 -2 4 C-2 3.34 -2 2.68 -2 2 C-3.98 2.66 -5.96 3.32 -8 4 C-8 3.01 -8 2.02 -8 1 C-5.07175348 0.02391783 -3.04386724 -0.08226668 0 0 Z " fill="#EFC256" transform="translate(165,51)"/>
<path d="M0 0 C0.99 0.33 1.98 0.66 3 1 C0.22719294 4.08089673 -2.06326356 5.68775452 -6 7 C-5.67 5.35 -5.34 3.7 -5 2 C-4.67 2.66 -4.34 3.32 -4 4 C-3.34 4 -2.68 4 -2 4 C-2 3.34 -2 2.68 -2 2 C-1.34 2 -0.68 2 0 2 C0 1.34 0 0.68 0 0 Z " fill="#E9C257" transform="translate(152,55)"/>
<path d="M0 0 C0.66 0.33 1.32 0.66 2 1 C1.01 2.485 1.01 2.485 0 4 C-0.24107326 6.28648848 -0.24107326 6.28648848 -0.125 8.6875 C-0.10695312 9.49574219 -0.08890625 10.30398437 -0.0703125 11.13671875 C-0.04710937 11.75160156 -0.02390625 12.36648437 0 13 C-1.76500118 9.63705537 -2.75517899 6.83552917 -3 3 C-1.5625 1.125 -1.5625 1.125 0 0 Z " fill="#FDF3C4" transform="translate(175,41)"/>
<path d="M0 0 C2.52259061 1.97420135 2.9929808 2.96745642 3.6875 6.1875 C3.790625 7.115625 3.89375 8.04375 4 9 C2 7 2 7 1 4 C0.01 4.99 -0.98 5.98 -2 7 C-1.125 1.125 -1.125 1.125 0 0 Z " fill="#ECC878" transform="translate(160,15)"/>
<path d="M0 0 C2.29633824 3.44450737 2.54016485 5.93812283 3 10 C0.525 9.01 0.525 9.01 -2 8 C-1.34 7.67 -0.68 7.34 0 7 C0 4.69 0 2.38 0 0 Z " fill="#E4E4E2" transform="translate(234,53)"/>
<path d="M0 0 C0.66 0 1.32 0 2 0 C2.33 2.64 2.66 5.28 3 8 C2.01 8 1.02 8 0 8 C-0.79953138 4.71303767 -1.09658936 3.28976808 0 0 Z " fill="#F2BC2C" transform="translate(105,42)"/>
<path d="M0 0 C0.58265625 0.21527344 1.1653125 0.43054687 1.765625 0.65234375 C0.775625 0.98234375 -0.214375 1.31234375 -1.234375 1.65234375 C-2.1934375 2.70421875 -2.1934375 2.70421875 -3.171875 3.77734375 C-3.8525 4.39609375 -4.533125 5.01484375 -5.234375 5.65234375 C-7.36328125 5.26953125 -7.36328125 5.26953125 -9.234375 4.65234375 C-8.16330383 3.78285058 -7.07691556 2.9322017 -5.984375 2.08984375 C-5.38109375 1.61417969 -4.7778125 1.13851562 -4.15625 0.6484375 C-2.234375 -0.34765625 -2.234375 -0.34765625 0 0 Z " fill="#FEF0C1" transform="translate(39.234375,53.34765625)"/>
<path d="M0 0 C1.65 0 3.3 0 5 0 C5 1.32 5 2.64 5 4 C2.03 3.505 2.03 3.505 -1 3 C-0.67 2.01 -0.34 1.02 0 0 Z " fill="#F1BD30" transform="translate(107,54)"/>
<path d="M0 0 C-0.33 0.99 -0.66 1.98 -1 3 C-3.5625 4.1875 -3.5625 4.1875 -6 5 C-6.33 3.68 -6.66 2.36 -7 1 C-4.53721199 -0.231394 -2.7204945 -0.07159196 0 0 Z " fill="#EABD50" transform="translate(185,33)"/>
<path d="M0 0 C0.66 0.33 1.32 0.66 2 1 C2.625 3.5625 2.625 3.5625 3 6 C2.01 6 1.02 6 0 6 C-0.66 6.66 -1.32 7.32 -2 8 C-1.125 2.25 -1.125 2.25 0 0 Z " fill="#EEBC3E" transform="translate(160,18)"/>
<path d="M0 0 C0.99 0.33 1.98 0.66 3 1 C3.33 2.98 3.66 4.96 4 7 C3.67 6.34 3.34 5.68 3 5 C1.68 5 0.36 5 -1 5 C-0.67 3.35 -0.34 1.7 0 0 Z " fill="#ECC56E" transform="translate(98,15)"/>
<path d="M0 0 C0.99 0.33 1.98 0.66 3 1 C0.36 2.98 -2.28 4.96 -5 7 C-4.67 5.35 -4.34 3.7 -4 2 C-2.68 2 -1.36 2 0 2 C0 1.34 0 0.68 0 0 Z " fill="#EEBC54" transform="translate(176,38)"/>
<path d="M0 0 C0.86625 0.556875 0.86625 0.556875 1.75 1.125 C1.42 2.115 1.09 3.105 0.75 4.125 C-1.56 3.135 -3.87 2.145 -6.25 1.125 C-2.80384615 -1.09038462 -2.80384615 -1.09038462 0 0 Z " fill="#EEBF4C" transform="translate(27.25,38.875)"/>
<path d="M0 0 C0.99 0.33 1.98 0.66 3 1 C0.75 3.0625 0.75 3.0625 -2 5 C-4.3125 4.75 -4.3125 4.75 -6 4 C-3.1875 1.9375 -3.1875 1.9375 0 0 Z " fill="#FEF6E9" transform="translate(30,59)"/>
<path d="M0 0 C0.99 0.33 1.98 0.66 3 1 C0.03 3.475 0.03 3.475 -3 6 C-3.33 4.68 -3.66 3.36 -4 2 C-3.34 1.67 -2.68 1.34 -2 1 C-1.34 1.33 -0.68 1.66 0 2 C0 1.34 0 0.68 0 0 Z " fill="#EDBE5C" transform="translate(61,33)"/>
<path d="M0 0 C2.475 0.495 2.475 0.495 5 1 C5.33 2.98 5.66 4.96 6 7 C3 6 3 6 1.3125 2.9375 C0.879375 1.968125 0.44625 0.99875 0 0 Z " fill="#FBF3D8" transform="translate(160,14)"/>
<path d="M0 0 C0.99 0.33 1.98 0.66 3 1 C3.33 2.65 3.66 4.3 4 6 C3.01 5.67 2.02 5.34 1 5 C0.01 5.495 0.01 5.495 -1 6 C-0.67 4.02 -0.34 2.04 0 0 Z " fill="#E5E5E3" transform="translate(282,14)"/>
</svg>
