<svg xmlns="http://www.w3.org/2000/svg" fill="none" viewBox="0 0 24 24" id="Grid-4x4-Fill--Streamline-Outlined-Fill-Material" height="24" width="24">
  <desc>
    Grid 4x4 Fill Streamline Icon: https://streamlinehq.com
  </desc>
  <path fill="#000000" d="M5.375 22v-3.375H2v-1.5h3.375V12.75H2v-1.5h3.375v-4.375H2v-1.5h3.375V2h1.5v3.375h4.375V2h1.5v3.375h4.375V2h1.5v3.375H22v1.5h-3.375v4.375H22v1.5h-3.375v4.375H22v1.5h-3.375V22h-1.5v-3.375H12.75V22h-1.5v-3.375h-4.375V22h-1.5Zm1.5 -4.875h4.375V12.75h-4.375v4.375Zm5.875 0h4.375V12.75H12.75v4.375ZM6.875 11.25h4.375v-4.375h-4.375v4.375Zm5.875 0h4.375v-4.375H12.75v4.375Z" stroke-width="0.5"></path>
</svg>