<svg version="1.1" id="Layer_1" xmlns="http://www.w3.org/2000/svg" xmlns:xlink="http://www.w3.org/1999/xlink" x="0px" y="0px"
	 width="100%" viewBox="0 0 120 120" enable-background="new 0 0 120 120" xml:space="preserve">
<path fill="#E8DDD9" opacity="1.000000" stroke="none" 
	d="
M78.000000,121.000000 
	C66.979103,121.000000 55.958210,121.000000 44.787605,120.698395 
	C44.177143,119.950996 43.793724,119.282013 43.244446,119.091682 
	C24.060545,112.444168 10.408390,100.189484 3.829593,80.604240 
	C3.471933,79.539474 1.969535,78.859230 1.000001,78.000000 
	C1.000000,66.979103 1.000000,55.958210 1.296703,44.789085 
	C2.406955,43.119015 3.378651,41.659767 4.009566,40.065643 
	C10.255990,24.282894 20.622812,12.483292 36.493855,5.775271 
	C39.187481,4.636788 41.507420,2.614154 44.000000,1.000000 
	C54.687561,1.000000 65.375122,1.000000 76.209053,1.305491 
	C81.110413,3.784998 86.040062,5.646811 90.587982,8.190978 
	C104.801186,16.142036 114.308228,27.984768 119.039688,43.632374 
	C119.220718,44.231091 120.325615,44.550457 121.000000,45.000000 
	C121.000000,55.687561 121.000000,66.375122 120.700592,77.215378 
	C118.938660,80.525024 117.543343,83.715195 116.002182,86.833282 
	C108.628494,101.751762 97.253319,112.246712 81.578934,118.060921 
	C80.210793,118.568413 79.184875,119.998466 78.000000,121.000000 
M60.073666,31.073132 
	C50.925266,30.996679 47.174366,34.385666 44.221256,45.573959 
	C39.783562,45.292248 36.437721,46.477276 36.138519,51.877308 
	C35.548782,62.520950 34.686245,73.149330 34.073147,83.791893 
	C33.756981,89.280136 35.468933,90.978432 40.998196,91.002007 
	C50.497227,91.042511 59.996563,91.023201 69.495750,91.012192 
	C80.871803,90.999008 83.674423,92.918694 82.007530,77.880135 
	C81.580276,74.025391 82.034813,71.400665 86.206848,69.255173 
	C93.197098,65.660393 95.659470,57.299969 93.037399,49.796082 
	C90.545792,42.665558 82.888863,38.080582 75.185471,39.130932 
	C73.750732,39.326553 72.329163,39.618664 70.901512,39.866249 
	C71.118515,39.412933 71.335518,38.959618 71.552521,38.506302 
	C67.995293,36.068562 64.438065,33.630821 60.073666,31.073132 
z"/>
<path fill="#000000" opacity="1.000000" stroke="none" 
	d="
M121.000000,44.531342 
	C120.325615,44.550457 119.220718,44.231091 119.039688,43.632374 
	C114.308228,27.984768 104.801186,16.142036 90.587982,8.190978 
	C86.040062,5.646811 81.110413,3.784998 76.677711,1.305491 
	C91.593361,1.000000 106.186729,1.000000 121.000000,1.000000 
	C121.000000,15.353479 121.000000,29.708082 121.000000,44.531342 
z"/>
<path fill="#000000" opacity="1.000000" stroke="none" 
	d="
M43.531342,1.000000 
	C41.507420,2.614154 39.187481,4.636788 36.493855,5.775271 
	C20.622812,12.483292 10.255990,24.282894 4.009566,40.065643 
	C3.378651,41.659767 2.406955,43.119015 1.296703,44.320427 
	C1.000000,29.739979 1.000000,15.479958 1.000000,1.000000 
	C15.020128,1.000000 29.041407,1.000000 43.531342,1.000000 
z"/>
<path fill="#000000" opacity="1.000000" stroke="none" 
	d="
M1.000001,78.468658 
	C1.969535,78.859230 3.471933,79.539474 3.829593,80.604240 
	C10.408390,100.189484 24.060545,112.444168 43.244446,119.091682 
	C43.793724,119.282013 44.177143,119.950996 44.318947,120.698395 
	C29.739981,121.000000 15.479960,121.000000 1.000000,121.000000 
	C1.000000,106.979874 1.000000,92.958595 1.000001,78.468658 
z"/>
<path fill="#000000" opacity="1.000000" stroke="none" 
	d="
M78.468658,121.000000 
	C79.184875,119.998466 80.210793,118.568413 81.578934,118.060921 
	C97.253319,112.246712 108.628494,101.751762 116.002182,86.833282 
	C117.543343,83.715195 118.938660,80.525024 120.700592,77.684036 
	C121.000000,92.260025 121.000000,106.520042 121.000000,121.000000 
	C106.979874,121.000000 92.958595,121.000000 78.468658,121.000000 
z"/>
<path fill="#4D4540" opacity="1.000000" stroke="none" 
	d="
M60.477249,31.133104 
	C64.438065,33.630821 67.995293,36.068562 71.552521,38.506302 
	C71.335518,38.959618 71.118515,39.412933 70.901512,39.866249 
	C72.329163,39.618664 73.750732,39.326553 75.185471,39.130932 
	C82.888863,38.080582 90.545792,42.665558 93.037399,49.796082 
	C95.659470,57.299969 93.197098,65.660393 86.206848,69.255173 
	C82.034813,71.400665 81.580276,74.025391 82.007530,77.880135 
	C83.674423,92.918694 80.871803,90.999008 69.495750,91.012192 
	C59.996563,91.023201 50.497227,91.042511 40.998196,91.002007 
	C35.468933,90.978432 33.756981,89.280136 34.073147,83.791893 
	C34.686245,73.149330 35.548782,62.520950 36.138519,51.877308 
	C36.437721,46.477276 39.783562,45.292248 44.221256,45.573959 
	C47.174366,34.385666 50.925266,30.996679 60.477249,31.133104 
M45.039879,51.855740 
	C43.871792,51.104900 42.703705,50.354057 40.706379,49.070187 
	C39.815521,62.429836 39.025909,74.271164 38.225395,86.276001 
	C51.865345,86.276001 64.869499,86.276001 78.240387,86.276001 
	C77.985535,81.372467 77.754311,76.923470 77.528610,72.580658 
	C64.148872,69.045059 60.592186,64.132202 61.214737,50.288177 
	C57.296425,50.288177 53.385872,50.288177 49.064960,50.288177 
	C49.064960,53.522659 49.243950,56.499435 48.978970,59.436150 
	C48.869301,60.651600 47.808708,61.781250 47.180584,62.949924 
	C46.456158,61.715439 45.314156,60.547985 45.102772,59.231144 
	C44.764927,57.126564 45.045101,54.922775 45.039879,51.855740 
M49.185715,43.779015 
	C49.301208,44.252514 49.407017,45.137203 49.533596,45.140179 
	C54.426373,45.255424 59.397713,45.813599 64.182907,45.112904 
	C66.550026,44.766285 68.207474,41.563080 65.517570,39.383270 
	C63.244114,37.540932 60.207222,35.680458 57.458813,35.604019 
	C53.069149,35.481930 50.496723,38.827328 49.185715,43.779015 
M77.482040,47.864777 
	C76.011658,48.511890 74.541275,49.159004 73.070900,49.806118 
	C73.253487,50.099335 73.436073,50.392555 73.618660,50.685776 
	C75.364464,50.895912 77.110260,51.106045 78.856064,51.316177 
	C77.927536,52.607410 76.999008,53.898647 76.358788,54.788948 
	C77.390892,56.083855 78.281670,57.201443 79.172447,58.319035 
	C77.205177,58.712158 75.237907,59.105282 73.053955,59.541706 
	C74.738297,62.805603 77.728859,62.926655 80.043373,61.386219 
	C81.194496,60.620079 80.878548,57.616047 81.173782,55.616619 
	C81.270950,54.958527 80.972771,54.156742 81.248482,53.624199 
	C83.002129,50.237041 81.432739,48.670483 77.482040,47.864777 
z"/>
<path fill="#E4D9D5" opacity="1.000000" stroke="none" 
	d="
M45.051937,52.308334 
	C45.045101,54.922775 44.764927,57.126564 45.102772,59.231144 
	C45.314156,60.547985 46.456158,61.715439 47.180580,62.949924 
	C47.808708,61.781250 48.869301,60.651600 48.978970,59.436150 
	C49.243950,56.499435 49.064960,53.522659 49.064960,50.288177 
	C53.385872,50.288177 57.296425,50.288177 61.214737,50.288177 
	C60.592186,64.132202 64.148872,69.045059 77.528610,72.580658 
	C77.754311,76.923470 77.985535,81.372467 78.240387,86.276001 
	C64.869499,86.276001 51.865345,86.276001 38.225395,86.276001 
	C39.025909,74.271164 39.815521,62.429836 40.706379,49.070187 
	C42.703705,50.354057 43.871792,51.104900 45.051937,52.308334 
z"/>
<path fill="#DED4D0" opacity="1.000000" stroke="none" 
	d="
M49.236259,43.386677 
	C50.496723,38.827328 53.069149,35.481930 57.458813,35.604019 
	C60.207222,35.680458 63.244114,37.540932 65.517570,39.383270 
	C68.207474,41.563080 66.550026,44.766285 64.182907,45.112904 
	C59.397713,45.813599 54.426373,45.255424 49.533596,45.140179 
	C49.407017,45.137203 49.301208,44.252514 49.236259,43.386677 
z"/>
<path fill="#DBD2CD" opacity="1.000000" stroke="none" 
	d="
M77.877052,47.874397 
	C81.432739,48.670483 83.002129,50.237041 81.248482,53.624199 
	C80.972771,54.156742 81.270950,54.958527 81.173782,55.616619 
	C80.878548,57.616047 81.194496,60.620079 80.043373,61.386219 
	C77.728859,62.926655 74.738297,62.805603 73.053955,59.541706 
	C75.237907,59.105282 77.205177,58.712158 79.172447,58.319031 
	C78.281670,57.201443 77.390892,56.083855 76.358788,54.788948 
	C76.999008,53.898647 77.927536,52.607410 78.856064,51.316177 
	C77.110260,51.106045 75.364464,50.895912 73.618660,50.685776 
	C73.436073,50.392555 73.253487,50.099335 73.070900,49.806118 
	C74.541275,49.159004 76.011658,48.511890 77.877052,47.874397 
z"/>
</svg>