<svg xmlns="http://www.w3.org/2000/svg" fill="none" viewBox="0 0 24 24" id="Male--Streamline-Rounded-Material" height="24" width="24">
  <desc>
    Male Streamline Icon: https://streamlinehq.com
  </desc>
  <path fill="white" d="M20 4.75v4c0 0.2125 -0.07235 0.3906 -0.217 0.53425 -0.1445 0.14385 -0.32365 0.21575 -0.5375 0.21575 -0.21365 0 -0.39135 -0.0719 -0.533 -0.21575C18.57085 9.1406 18.5 8.9625 18.5 8.75v-2.175l-4.6 4.575c0.35 0.48335 0.62085 1.0125 0.8125 1.5875S15 13.9 15 14.5c0 1.53335 -0.53335 2.83335 -1.6 3.9S11.03335 20 9.5 20s-2.83335 -0.53335 -3.9 -1.6C4.533335 17.33335 4 16.03335 4 14.5s0.533335 -2.83335 1.6 -3.9c1.06665 -1.06665 2.36665 -1.6 3.9 -1.6 0.6 0 1.18335 0.09585 1.75 0.2875 0.56665 0.19165 1.09165 0.4625 1.575 0.8125l4.6 -4.6H15.25c-0.2125 0 -0.3906 -0.07235 -0.53425 -0.217C14.5719 5.1385 14.5 4.959335 14.5 4.7455c0 -0.213665 0.0719 -0.391335 0.21575 -0.533C14.8594 4.070835 15.0375 4 15.25 4h4c0.2125 0 0.39065 0.071835 0.5345 0.2155 0.14365 0.143835 0.2155 0.322 0.2155 0.5345ZM9.505 10.5c-1.10335 0 -2.04665 0.39 -2.83 1.17C5.89165 12.45 5.5 13.39165 5.5 14.495c0 1.10335 0.39 2.04665 1.17 2.83C7.45 18.10835 8.39165 18.5 9.495 18.5c1.10335 0 2.04665 -0.39 2.83 -1.17C13.10835 16.55 13.5 15.60835 13.5 14.505c0 -1.10335 -0.39 -2.04665 -1.17 -2.83C11.55 10.89165 10.60835 10.5 9.505 10.5Z" stroke-width="0.5"></path>
</svg>